<svg xmlns="http://www.w3.org/2000/svg" width="1075.565" height="723" viewBox="0 0 1075.565 723">
  <g id="Groupe_20" data-name="Groupe 20" transform="translate(-3130 -2347)">
    <g id="plus">
      <circle id="Ellipse_16" data-name="Ellipse 16" cx="81" cy="81" r="81" transform="translate(3372.961 2573.862)" fill="#6c63ff"/>
      <path id="Tracé_57" data-name="Tracé 57" d="M374.961,299.862h-43v-43h-16v43h-43v16h43v43h16v-43h43Z" transform="translate(3130 2347)" fill="#fff"/>
    </g>
    <g id="Groupe_19" data-name="Groupe 19">
      <rect id="Rectangle_20" data-name="Rectangle 20" width="457.546" height="2" transform="translate(3748.019 3068)" fill="#3f3d56"/>
      <rect id="Rectangle_21" data-name="Rectangle 21" width="457.546" height="2" transform="translate(3713.019 3039)" fill="#3f3d56"/>
      <rect id="Rectangle_22" data-name="Rectangle 22" width="457.546" height="2" transform="translate(3568.019 3010)" fill="#3f3d56"/>
      <path id="Tracé_46" data-name="Tracé 46" d="M391.47,664.076c-2.774,0-5.577-.044-8.328-.13l.063-2c3.95.123,7.981.157,11.95.1l.027,2Q393.329,664.076,391.47,664.076Zm15.745-.464-.117-2c3.956-.233,7.963-.562,11.909-.975l.209,1.988c-3.977.417-8.014.748-12,.982Zm-36.1-.312c-3.989-.306-8.021-.706-11.982-1.192l.244-1.984c3.932.481,7.932.88,11.891,1.183Zm60.039-2.2-.3-1.977c3.931-.6,7.892-1.289,11.77-2.06l.39,1.961C439.11,659.8,435.119,660.5,431.158,661.1Zm-83.935-.731c-3.941-.668-7.919-1.436-11.823-2.283l.424-1.955c3.875.842,7.822,1.6,11.733,2.266Zm107.548-3.962-.48-1.941c3.858-.954,7.738-2.009,11.532-3.134l.568,1.918C462.569,654.385,458.659,655.448,454.772,656.409ZM323.7,655.262c-3.866-1.028-7.756-2.159-11.562-3.363l.6-1.906c3.778,1.194,7.638,2.316,11.474,3.336Zm154.158-5.7-.656-1.889c3.744-1.3,7.51-2.709,11.194-4.184l.742,1.857C485.422,646.831,481.627,648.249,477.854,649.561Zm-177.146-1.566c-3.754-1.38-7.532-2.869-11.228-4.426l.776-1.844c3.667,1.545,7.416,3.022,11.142,4.393Zm199.475-7.368-.828-1.82c3.6-1.634,7.21-3.378,10.742-5.184l.91,1.781C507.447,637.223,503.806,638.98,500.183,640.626Zm21.4-10.938-.99-1.736c3.448-1.968,6.891-4.036,10.229-6.148l1.068,1.689C528.525,625.621,525.057,627.706,521.581,629.688ZM541.9,616.83l-1.145-1.639c3.247-2.269,6.487-4.645,9.631-7.061l1.219,1.586C548.443,612.152,545.177,614.545,541.9,616.83Zm-304.826-2.816c-3.228-2.345-6.453-4.8-9.585-7.3l1.248-1.562c3.108,2.481,6.309,4.919,9.512,7.245Zm323.9-11.846-1.289-1.529c3.026-2.554,6.038-5.215,8.953-7.91L570,594.2C567.067,596.913,564.031,599.595,560.982,602.168Zm-342.728-3.186c-3.006-2.633-5.993-5.371-8.877-8.14l1.385-1.443c2.862,2.748,5.826,5.466,8.81,8.079Zm360.4-13.161-1.424-1.4c2.79-2.827,5.55-5.753,8.2-8.7l1.486,1.338c-2.672,2.966-5.452,5.913-8.264,8.762ZM200.882,582.31c-2.758-2.9-5.482-5.9-8.1-8.91l1.511-1.311c2.594,2.989,5.3,5.964,8.035,8.842Zm393.893-14.38-1.545-1.27c2.521-3.067,5-6.232,7.378-9.409l1.6,1.2C599.816,561.65,597.315,564.84,594.775,567.93Zm-409.671-3.8c-2.477-3.13-4.916-6.361-7.25-9.6l1.623-1.168c2.316,3.218,4.736,6.425,7.195,9.532Zm424.1-15.5-1.654-1.123c2.23-3.284,4.415-6.664,6.492-10.048l1.705,1.047C613.652,541.921,611.45,545.327,609.2,548.636Zm-438.151-4.029c-2.179-3.341-4.312-6.778-6.34-10.22l1.723-1.016c2.013,3.415,4.129,6.827,6.292,10.142ZM621.819,528.1l-1.75-.967c1.92-3.475,3.785-7.043,5.546-10.606l1.793.887C625.634,521,623.753,524.595,621.819,528.1ZM632.5,506.475l-1.832-.8c1.594-3.64,3.124-7.367,4.549-11.078l1.867.717C635.648,499.051,634.1,502.807,632.5,506.475Zm-483.9-4.315c-1.533-3.68-3-7.444-4.364-11.19l1.88-.684c1.352,3.718,2.809,7.453,4.33,11.1Zm492.551-18.216-1.9-.629c1.248-3.761,2.426-7.6,3.5-11.426l1.926.541C643.592,476.281,642.4,480.155,641.148,483.944Zm-500.767-4.383c-1.19-3.812-2.308-7.705-3.323-11.574l1.935-.508c1.007,3.84,2.117,7.7,3.3,11.486Zm507.286-18.795-1.948-.453c.9-3.854,1.714-7.791,2.434-11.7l1.967.361C649.394,452.914,648.569,456.88,647.666,460.766Zm-513.394-4.494c-.834-3.906-1.589-7.886-2.243-11.83l1.973-.328c.65,3.915,1.4,7.864,2.227,11.74Zm517.752-19.184-1.982-.271c.538-3.917.992-7.911,1.351-11.872l1.992.18c-.361,3.992-.819,8.017-1.36,11.964Zm-521.694-4.566c-.472-3.959-.859-7.991-1.151-11.984l2-.146c.29,3.964.674,7.965,1.143,11.895ZM654.2,413.113l-2-.09c.178-3.963.269-7.982.269-11.946h2c0,3.994-.091,8.044-.271,12.036Zm-525.626-4.6c-.068-2.452-.1-4.954-.1-7.435q0-2.309.04-4.608l2,.035q-.04,2.282-.04,4.573c0,2.462.035,4.945.1,7.38Zm2.411-23.948-2-.125c.25-4,.594-8.032,1.023-12l1.988.215c-.426,3.935-.768,7.94-1.016,11.906Zm520.194-12.2c-.4-3.943-.949-5.865-1.529-9.791l1.979-.292c.584,3.956,1.085,6.975,1.488,10.948ZM133.557,360.81l-1.977-.306c.613-3.957,1.325-7.944,2.116-11.854l1.96.4c-.785,3.88-1.492,7.837-2.1,11.763Zm514.074-10.016c-.763-3.9-1.623-7.829-2.559-11.672l1.943-.473c.942,3.873,1.81,7.831,2.578,11.761Zm-509.337-13.4-1.94-.486c.971-3.874,2.047-7.779,3.2-11.609l1.915.575C140.325,329.674,139.258,333.55,138.294,337.393Zm503.685-9.813c-1.115-3.808-2.334-7.639-3.622-11.387l1.891-.65c1.3,3.777,2.527,7.638,3.651,11.475Zm-496.8-13.1-1.887-.663c1.329-3.781,2.764-7.58,4.265-11.291l1.854.75c-1.49,3.683-2.914,7.453-4.233,11.2Zm489.033-9.495c-1.459-3.681-3.021-7.375-4.645-10.979l1.824-.821c1.636,3.633,3.21,7.355,4.68,11.063Zm-480.057-12.7-1.817-.835c1.67-3.638,3.448-7.286,5.284-10.842l1.777.917C157.577,285.052,155.813,288.672,154.155,292.283Zm470.269-9.036c-1.79-3.531-3.687-7.069-5.637-10.515l1.74-.985c1.966,3.473,3.876,7.038,5.68,10.6ZM165.133,271.017l-1.733-1c2-3.464,4.1-6.932,6.254-10.306l1.686,1.076C169.2,264.138,167.112,267.579,165.133,271.017Zm447.542-8.535c-2.113-3.364-4.326-6.716-6.577-9.962l1.643-1.14c2.269,3.271,4.5,6.648,6.628,10.038ZM178.006,250.859l-1.635-1.152c2.306-3.27,4.716-6.529,7.167-9.687l1.58,1.226C182.686,244.379,180.293,247.614,178.006,250.859Zm421.064-7.992c-2.41-3.157-4.92-6.295-7.462-9.327l1.533-1.285c2.561,3.056,5.09,6.217,7.519,9.4Zm-406.411-10.9-1.522-1.3c2.587-3.039,5.284-6.064,8.015-8.991l1.462,1.364C197.9,225.949,195.227,228.951,192.659,231.968Zm391.07-7.408c-2.687-2.924-5.474-5.823-8.282-8.614l1.41-1.419c2.83,2.813,5.638,5.733,8.345,8.679ZM208.964,214.5l-1.4-1.43c2.86-2.8,5.819-5.564,8.8-8.221l1.332,1.492c-2.954,2.637-5.891,5.382-8.729,8.159Zm357.818-6.78c-2.944-2.67-5.984-5.3-9.035-7.828l1.275-1.541c3.073,2.543,6.137,5.2,9.1,7.888Zm-340-9.132-1.263-1.551c3.093-2.519,6.29-5,9.5-7.384l1.191,1.606c-3.188,2.363-6.361,4.829-9.431,7.329Zm19.182-14.217-1.116-1.659c3.311-2.228,6.719-4.409,10.13-6.484l1.039,1.709C252.632,179.992,249.25,182.157,245.964,184.367Zm20.388-12.4-.96-1.755c3.5-1.917,7.094-3.776,10.674-5.527l.879,1.8c-3.553,1.738-7.117,3.583-10.593,5.485Zm241.37-4.634c-3.559-1.773-7.2-3.486-10.835-5.091l.809-1.829c3.659,1.617,7.333,3.343,10.919,5.13Zm-219.948-5.844-.795-1.835c3.66-1.586,7.4-3.108,11.128-4.522l.71,1.87c-3.7,1.4-7.411,2.913-11.043,4.487Zm198.052-3.834c-3.7-1.436-7.493-2.806-11.266-4.072l.637-1.9c3.8,1.276,7.62,2.656,11.352,4.1Zm-175.743-4.637-.623-1.9c3.8-1.246,7.679-2.419,11.525-3.486l.535,1.927C317.7,150.615,313.854,151.779,310.082,153.016Zm153.063-2.974c-3.814-1.087-7.705-2.1-11.563-3.01l.459-1.946c3.889.917,7.809,1.937,11.653,3.032ZM333.1,146.627l-.445-1.95c3.9-.89,7.866-1.7,11.8-2.41l.355,1.968C340.909,144.939,336.971,145.743,333.1,146.627Zm106.788-2.067c-3.895-.731-7.861-1.381-11.791-1.933l.277-1.98c3.96.556,7.958,1.211,11.883,1.948Zm-83.275-2.176-.265-1.982c3.959-.528,7.985-.973,11.967-1.319l.174,1.992C364.541,141.419,360.546,141.859,356.616,142.384Zm59.616-1.147c-3.939-.371-7.949-.657-11.919-.849l.1-2c4,.194,8.039.482,12.009.856Zm-35.814-.929-.084-2c3.676-.153,7.422-.231,11.136-.232h.905l-.006,2h-.9C387.784,140.077,384.066,140.155,380.418,140.307Z" transform="translate(3067.782 2258.5)" fill="#3f3d56"/>
      <path id="Tracé_47" data-name="Tracé 47" d="M840.679,321.862l-5,34s-22,44-8,89l18-11s14-54,14-58,6-51,6-51Z" transform="translate(3067.782 2258.5)" fill="#ffb9b9"/>
      <path id="Tracé_48" data-name="Tracé 48" d="M850.679,430.862l-24,16,12,59s3,80,2,83-19,125-19,125,21,10,40,4c0,0,19-90,19-116l22-91,34,104s2,70,6,93,4,26,4,26,32,9,40,0c0,0-4-118-7-130l-7-143Z" transform="translate(3067.782 2258.5)" fill="#2f2e41"/>
      <path id="Tracé_49" data-name="Tracé 49" d="M829.679,713.862s-2-3-8,5-25,23-25,23-52,37-13,39,46-18,46-18,33-6,34-13-4-35-4-35Z" transform="translate(3067.782 2258.5)" fill="#2f2e41"/>
      <path id="Tracé_50" data-name="Tracé 50" d="M948.679,731.862s-7,24-5,34-4,47,24,44,19-35,19-35l-9-41Z" transform="translate(3067.782 2258.5)" fill="#2f2e41"/>
      <circle id="Ellipse_15" data-name="Ellipse 15" cx="33" cy="33" r="33" transform="translate(3943.961 2400.862)" fill="#ffb9b9"/>
      <path id="Tracé_51" data-name="Tracé 51" d="M889.679,192.862s10,35,2,48,54,2,58-10c0,0-20-22-17-43Z" transform="translate(3067.782 2258.5)" fill="#ffb9b9"/>
      <path id="Tracé_52" data-name="Tracé 52" d="M905.679,239.862s27.374,1.851,40.687-13.075l49.313,21.075-21,116s42,98,4,107-148,0-143-33,25-73,25-73,5-44-6-64-4-43-4-43L894.7,228.7S896.679,239.862,905.679,239.862Z" transform="translate(3067.782 2258.5)" fill="#575a89"/>
      <path id="Tracé_53" data-name="Tracé 53" d="M862.679,258.862h-12s-14,3-11,41l-7,27s35,9,40,4S862.679,258.862,862.679,258.862Z" transform="translate(3067.782 2258.5)" fill="#575a89"/>
      <path id="Tracé_54" data-name="Tracé 54" d="M1007.679,318.862l-4,35s5,46-12,82l-6,18s-6,52-22,52,0-59,0-59l8-59s6-23,2-33-5-31-5-31Z" transform="translate(3067.782 2258.5)" fill="#ffb9b9"/>
      <path id="Tracé_55" data-name="Tracé 55" d="M901.071,153.769a131.948,131.948,0,0,1,14.787-1.466c3.588-.152,7.327-.128,10.569,1.416,4.889,2.328,7.629,7.592,9.422,12.7s3.066,10.57,6.393,14.843c5.536-5.778,6.642-14.369,7.466-22.328.58-5.6,1.094-11.568-1.5-16.566-1.594-3.078-4.225-5.477-6.889-7.695-12.72-10.587-28.875-18.917-45.252-16.539l-.383,2.528a45.157,45.157,0,0,0-8.354.525l.585,6.273-8.7.552-.334,6.538-8.8.3a10.193,10.193,0,0,0,3.069,6.627,12.393,12.393,0,0,1-4.519,2.041c1.467,5.679,2.891,11.371,4.407,17.037,1.116,4.174.917,7.862,5.394,5.825,3.409-1.551,5.715-6.483,9.161-8.521C891.662,155.466,896.467,154.489,901.071,153.769Z" transform="translate(3067.782 2258.5)" fill="#2f2e41"/>
      <path id="Tracé_56" data-name="Tracé 56" d="M981.679,248.862h14s23,77,19,78-51,4-51,4Z" transform="translate(3067.782 2258.5)" fill="#575a89"/>
      <rect id="Rectangle_23" data-name="Rectangle 23" width="110.153" height="128.333" transform="translate(3201.608 2791.69)" fill="#f2f2f2"/>
      <path id="Tracé_58" data-name="Tracé 58" d="M286.757,662.592h-154v-154h154ZM134.9,660.454H284.618V510.731H134.9Z" transform="translate(3067.782 2258.5)" fill="#3f3d56"/>
      <rect id="Rectangle_24" data-name="Rectangle 24" width="94.111" height="2.139" transform="translate(3232.622 2812.009)" fill="#3f3d56"/>
      <rect id="Rectangle_25" data-name="Rectangle 25" width="94.111" height="2.139" transform="translate(3232.622 2835.537)" fill="#3f3d56"/>
      <rect id="Rectangle_26" data-name="Rectangle 26" width="94.111" height="2.139" transform="translate(3232.622 2859.065)" fill="#3f3d56"/>
      <rect id="Rectangle_27" data-name="Rectangle 27" width="222" height="110.165" transform="translate(3354.792 2369.834)" fill="#f2f2f2"/>
      <path id="Tracé_59" data-name="Tracé 59" d="M554.009,222.5h-268V88.5h268Zm-266-2h264V90.5h-264Z" transform="translate(3067.782 2258.5)" fill="#3f3d56"/>
      <rect id="Rectangle_28" data-name="Rectangle 28" width="143.938" height="2" transform="translate(3393.822 2402.917)" fill="#3f3d56"/>
      <rect id="Rectangle_29" data-name="Rectangle 29" width="143.938" height="2" transform="translate(3393.822 2423.917)" fill="#3f3d56"/>
      <rect id="Rectangle_30" data-name="Rectangle 30" width="143.938" height="2" transform="translate(3393.822 2444.917)" fill="#3f3d56"/>
      <rect id="Rectangle_31" data-name="Rectangle 31" width="95" height="101" transform="translate(3659.961 2647.862)" fill="#f2f2f2"/>
      <path id="Tracé_60" data-name="Tracé 60" d="M711.179,491.362h-120v-120h120Zm-118-2h116v-116h-116Z" transform="translate(3067.782 2258.5)" fill="#3f3d56"/>
      <rect id="Rectangle_32" data-name="Rectangle 32" width="66" height="2" transform="translate(3674.461 2684.362)" fill="#3f3d56"/>
      <rect id="Rectangle_33" data-name="Rectangle 33" width="66" height="2" transform="translate(3674.461 2697.362)" fill="#3f3d56"/>
      <rect id="Rectangle_34" data-name="Rectangle 34" width="66" height="2" transform="translate(3674.461 2710.362)" fill="#3f3d56"/>
      <rect id="Rectangle_35" data-name="Rectangle 35" width="457.546" height="2" transform="translate(3259.019 2479)" fill="#3f3d56"/>
      <rect id="Rectangle_36" data-name="Rectangle 36" width="251" height="2" transform="translate(3593.461 2747.862)" fill="#3f3d56"/>
      <rect id="Rectangle_37" data-name="Rectangle 37" width="295.078" height="2" transform="translate(3130 2919.862)" fill="#3f3d56"/>
    </g>
  </g>
</svg>
