<svg xmlns="http://www.w3.org/2000/svg" width="774.116" height="440.768" viewBox="0 0 774.116 440.768">
  <g id="Groupe_18" data-name="Groupe 18" transform="translate(0 -33.924)">
    <g id="yad2">
      <path id="Tracé_18" data-name="Tracé 18" d="M236.306,126.186a9.889,9.889,0,0,0-.232,1.559l-41.568,23.562-10.1-5.715-10.771,13.854,16.886,11.825a7.851,7.851,0,0,0,9.288-.222l42.864-33.225a10.21,10.21,0,0,0,13.052-5.9,9.931,9.931,0,0,0-6-12.824A10.211,10.211,0,0,0,236.669,125,9.83,9.83,0,0,0,236.306,126.186Z" fill="#ffb7b7"/>
      <path id="Tracé_19" data-name="Tracé 19" d="M193.116,152.423,179.681,169.53a4.406,4.406,0,0,1-6.107.774,4.31,4.31,0,0,1-.476-.419l-15.21-15.518a11.742,11.742,0,0,1-2.1-16.676,12.237,12.237,0,0,1,16.929-2.1l19.076,10.48a4.235,4.235,0,0,1,1.321,6.348Z" fill="#6c63ff"/>
    </g>
    <g id="body">
      <path id="Tracé_20" data-name="Tracé 20" d="M174.627,450.506H186.49l5.643-44.959H174.625Z" fill="#ffb7b7"/>
      <path id="Tracé_21" data-name="Tracé 21" d="M171.6,446.7h23.365a14.761,14.761,0,0,1,14.888,14.629v.475H171.6Z" fill="#2f2e41"/>
      <path id="Tracé_22" data-name="Tracé 22" d="M93.343,450.506h11.864l5.643-44.959H93.341Z" fill="#ffb7b7"/>
      <path id="Tracé_23" data-name="Tracé 23" d="M90.316,446.7h23.365a14.762,14.762,0,0,1,14.889,14.629v.475H90.317Z" fill="#2f2e41"/>
      <path id="Tracé_24" data-name="Tracé 24" d="M159.118,127.687l12.079,5.879s13.495,23.044,5.754,44.911c-3.759,10.617,6.825,44.46,6.825,44.46s16.4,153.3,16.451,200.609c-20.373,3.077-39.726,6.88-40.694-2.627S147.973,299,147.973,299s-14.567,124.774-26.179,126.675-34.836-.95-34.836-.95,18.438-182.77,31.017-194.179l1.936-9.507-.052-85.343,14.493-6.795Z" fill="#2f2e41"/>
    </g>
    <g id="yad">
      <path id="Tracé_25" data-name="Tracé 25" d="M187.669,204.9a10.232,10.232,0,0,1-13.4-5.09l-54.12-7.04a7.817,7.817,0,0,1-2.41-.71,7.685,7.685,0,0,1-3.68-3.8,7.416,7.416,0,0,1-.55-1.88l-3.14-20.13,17.55-2.06.08.02,2.33,9.02.53,2.05.79.22,45.38,12.64a10.947,10.947,0,0,1,1.3-.93,10.7,10.7,0,0,1,1.12-.57,10.232,10.232,0,0,1,13.4,5.09A9.922,9.922,0,0,1,187.669,204.9Z" fill="#ffb7b7"/>
      <path id="Tracé_26" data-name="Tracé 26" d="M132.742,172.955l-21.949-1.361a4.305,4.305,0,0,1-4.071-4.54,4.213,4.213,0,0,1,.087-.622l4.573-21.069a12.095,12.095,0,0,1,24.134,1.567l1.84,21.4a4.3,4.3,0,0,1-3.974,4.622,4.558,4.558,0,0,1-.64.006Z" fill="#6c63ff"/>
    </g>
    <g id="pc" transform="translate(1 1)">
      <path id="Tracé_27" data-name="Tracé 27" d="M730.448,104.826H245.073a13.244,13.244,0,0,0-13.359,13.126V383.667a13.244,13.244,0,0,0,13.359,13.126H730.448a13.244,13.244,0,0,0,13.359-13.126V117.952a13.244,13.244,0,0,0-13.36-13.126h0Z" fill="#3f3d56"/>
      <rect id="Rectangle_16" data-name="Rectangle 16" width="476.271" height="263.97" transform="translate(249.625 128.023)" fill="#fff"/>
      <path id="Tracé_28" data-name="Tracé 28" d="M589.69,391.994H249.625V128.023Z" fill="#f2f2f2"/>
      <path id="Tracé_29" data-name="Tracé 29" d="M757.18,387.194H710.7V383.9a.659.659,0,0,0-.664-.652H694.1a.659.659,0,0,0-.664.652h0v3.291h-9.96V383.9a.658.658,0,0,0-.664-.652H666.874a.658.658,0,0,0-.664.652h0v3.291h-9.96V383.9a.659.659,0,0,0-.664-.652H639.649a.659.659,0,0,0-.664.652h0v3.291h-9.96V383.9a.658.658,0,0,0-.664-.652H612.425a.658.658,0,0,0-.664.652h0v3.291H601.8V383.9a.658.658,0,0,0-.664-.652H585.2a.658.658,0,0,0-.664.652h0v3.291h-9.96V383.9a.658.658,0,0,0-.664-.652H557.976a.658.658,0,0,0-.664.652h0v3.291h-9.961V383.9a.658.658,0,0,0-.664-.652H421.853a.658.658,0,0,0-.664.652h0v3.291h-9.961V383.9a.658.658,0,0,0-.664-.652H394.628a.658.658,0,0,0-.664.652h0v3.291H384V383.9a.658.658,0,0,0-.664-.652H367.4a.658.658,0,0,0-.664.652h0v3.291h-9.961V383.9a.658.658,0,0,0-.664-.652H340.179a.658.658,0,0,0-.664.652h0v3.291h-9.96V383.9a.659.659,0,0,0-.664-.652H312.954a.659.659,0,0,0-.664.652h0v3.291h-9.96V383.9a.658.658,0,0,0-.664-.652H285.73a.658.658,0,0,0-.664.652v3.291h-9.96V383.9a.659.659,0,0,0-.664-.652H258.505a.659.659,0,0,0-.664.652h0v3.291H227.3a15.8,15.8,0,0,0-15.937,15.658v7.08A15.8,15.8,0,0,0,227.3,425.59H757.18a15.8,15.8,0,0,0,15.936-15.658v-7.08a15.8,15.8,0,0,0-15.936-15.658Z" fill="#3f3d56"/>
      <path id="Tracé_30" data-name="Tracé 30" d="M644.336,194.738c-7.7,4.536-21.412,10.219-35.427,4.378l-9.06-3.776L618,175.345A84.148,84.148,0,0,1,623.98,55.012c35.47-31.608,90.3-28.979,122.473,5.872a84.147,84.147,0,0,1-5.976,120.332,87.9,87.9,0,0,1-96.141,13.522Z" fill="#fff"/>
      <ellipse id="Ellipse_10" data-name="Ellipse 10" cx="4.885" cy="4.799" rx="4.885" ry="4.799" transform="translate(463.558 109.746)" fill="#fff"/>
    </g>
    <g id="robo">
      <path id="Tracé_31" data-name="Tracé 31" d="M482.862,338.47a11.41,11.41,0,0,1-.536,1.087,13.99,13.99,0,0,1-4.29,4.741,14.252,14.252,0,0,1-19.635-3.354,13.678,13.678,0,0,1-2.569-7.97v-2.235h1.931A49.912,49.912,0,0,0,482.862,338.47Z" fill="#3f3d56"/>
      <path id="Tracé_32" data-name="Tracé 32" d="M510.406,331.394v1.58a13.967,13.967,0,0,1-14.083,13.847,14.128,14.128,0,0,1-12.377-7.22,11.271,11.271,0,0,1-.559-1.115c.412.011.818.017,1.231.017A50.035,50.035,0,0,0,510.406,331.394Z" fill="#3f3d56"/>
      <path id="Tracé_33" data-name="Tracé 33" d="M529.392,164.264c-.423-.061-.852-.1-1.281-.128a45.814,45.814,0,0,1,.943,34.776c.429-.05.852-.117,1.275-.194a17.423,17.423,0,0,0-.937-34.454Z" fill="#3f3d56"/>
      <path id="Tracé_34" data-name="Tracé 34" d="M441.124,164.136c-.429.028-.858.067-1.281.128a17.422,17.422,0,0,0-.937,34.454c.423.077.846.144,1.275.194a45.823,45.823,0,0,1,.943-34.776Z" fill="#3f3d56"/>
      <path id="Tracé_35" data-name="Tracé 35" d="M529.392,164.264c-10.351-24.294-38.786-35.742-63.511-25.572s-36.378,38.108-26.027,62.4,38.786,35.742,63.512,25.572a47.679,47.679,0,0,0,29.791-43.99A47.018,47.018,0,0,0,529.392,164.264Zm-.338,34.648c-9.127,24.106-36.416,36.377-60.95,27.41s-37.025-35.779-27.9-59.885,36.416-36.378,60.95-27.41a46.608,46.608,0,0,1,30.872,43.648A45.918,45.918,0,0,1,529.054,198.912Z" fill="#3f3d56"/>
      <path id="Tracé_36" data-name="Tracé 36" d="M509.452,171.861H459.783a9.706,9.706,0,1,0,0,19.409h49.669a9.706,9.706,0,1,0,0-19.409Z" fill="#3f3d56"/>
      <path id="Tracé_37" data-name="Tracé 37" d="M529.054,265.547q-.272-.492-.559-.965c-.005-.011-.011-.017-.017-.028-14.145-23.791-45.242-31.811-69.456-17.913a49.412,49.412,0,0,0-18.231,68.243,50.913,50.913,0,0,0,41.535,24.673c.536.027,1.078.044,1.62.044.226.011.446.011.672.011a51.116,51.116,0,0,0,25.788-6.926,50.6,50.6,0,0,0,19.72-20.823c.006-.012.012-.017.017-.028.17-.333.333-.671.5-1.015a49.064,49.064,0,0,0-1.586-45.273Zm.485,44.968q-.245.516-.508,1.015a49.482,49.482,0,0,1-18.625,19.864,50.035,50.035,0,0,1-25.788,7.109c-.413,0-.819-.006-1.231-.017-.175,0-.35-.005-.525-.016-27.413-.942-48.86-23.539-47.9-50.473s23.958-48.006,51.372-47.065a49.814,49.814,0,0,1,41.017,23.932c.006.011.012.017.017.028.2.316.39.638.57.96a47.982,47.982,0,0,1,1.6,44.663Z" fill="#3f3d56"/>
      <path id="Tracé_38" data-name="Tracé 38" d="M523.658,267.022a5.936,5.936,0,0,0-3.386-1.071h-22.2a5.729,5.729,0,1,0-.009,11.457h22.208a5.906,5.906,0,0,0,1.179-.116,6.527,6.527,0,0,0,1.129-.349,5.681,5.681,0,0,0,1.078-9.921Z" fill="#3f3d56"/>
      <ellipse id="Ellipse_11" data-name="Ellipse 11" cx="2.96" cy="2.908" rx="2.96" ry="2.908" transform="translate(496.591 268.771)" fill="#f1f1f1"/>
      <ellipse id="Ellipse_12" data-name="Ellipse 12" cx="2.96" cy="2.908" rx="2.96" ry="2.908" transform="translate(506.211 268.771)" fill="#f1f1f1"/>
      <ellipse id="Ellipse_13" data-name="Ellipse 13" cx="2.96" cy="2.908" rx="2.96" ry="2.908" transform="translate(515.831 268.771)" fill="#6c63ff"/>
    </g>
    <g id="msag">
      <path id="Tracé_39" data-name="Tracé 39" d="M644.383,199.1c-7.4,4.267-21.487,10.164-35.852,4.176l-10.3-4.294,18.477-20.35A85.093,85.093,0,0,1,623.977,57.02c36.188-31.609,91.6-28.41,123.775,7.145a85.086,85.086,0,0,1-6.624,121.04h0A88.486,88.486,0,0,1,644.383,199.1ZM745.737,64.806c-31.795-34.476-86.016-37.1-121.1-5.86a83.211,83.211,0,0,0-5.964,118.988l.052.056.584.634L601.47,198.267l7.817,3.258c13.874,5.782,27.6-.224,34.551-4.319l.45-.265.471.225c42.59,20.333,93.892,2.893,114.586-38.953a83.1,83.1,0,0,0-13.608-93.407Z" fill="#6c63ff"/>
      <path id="Tracé_40" data-name="Tracé 40" d="M755.426,120.867c0-40.61-31.567-74.5-72.738-78.087,2.324-.2,4.675-.308,7.052-.308,44.067.017,79.776,35.129,79.759,78.426-.018,43.272-35.716,78.347-79.759,78.365-2.373,0-4.72-.11-7.041-.31C723.865,195.357,755.423,161.473,755.426,120.867Z" opacity="0.1" style="isolation: isolate"/>
      <rect id="Rectangle_17" data-name="Rectangle 17" width="57.014" height="5.202" transform="translate(636.474 105.234)" fill="#6c63ff"/>
      <rect id="Rectangle_18" data-name="Rectangle 18" width="99.371" height="5.202" transform="translate(636.474 123.23)" fill="#6c63ff"/>
      <rect id="Rectangle_19" data-name="Rectangle 19" width="99.274" height="5.202" transform="translate(636.522 142.982)" fill="#6c63ff"/>
    </g>
    <g id="warda">
      <path id="Tracé_41" data-name="Tracé 41" d="M37.261,432.3C18.743,448.094,14.9,473.991,14.9,473.991s26.179.3,44.7-15.493,22.361-41.687,22.361-41.687S55.778,416.514,37.261,432.3Z" fill="#f2f2f2"/>
      <path id="Tracé_42" data-name="Tracé 42" d="M45.817,438.586c-7.887,23.022-30.565,36.106-30.565,36.106s-9.888-24.242-2-47.264,30.565-36.105,30.565-36.105S53.705,415.565,45.817,438.586Z" fill="#f2f2f2"/>
      <path id="Tracé_43" data-name="Tracé 43" d="M382,473.194H1a1,1,0,0,1,0-2H382a1,1,0,0,1,0,2Z" fill="#cbcbcb"/>
    </g>
    <g id="rase">
      <path id="Tracé_44" data-name="Tracé 44" d="M182.38,106.042c-4.054-5.161-9.784-9.937-10.147-16.306-.332-5.842,4.1-11.642,2.231-17.231-1.438-4.3-6.18-6.891-10.815-8.264a42.745,42.745,0,0,0-27.013,1.022l.469-.325c-5.276-1.846-11.443.06-15.593,3.59s-6.619,8.425-8.533,13.329-3.4,9.988-6.057,14.585-6.733,8.779-12.106,10.368c1.8,3.525,7.422,4.735,10.72,2.305a13.4,13.4,0,0,0,2.256-2.291q3.3-3.942,6.6-7.883c2.263,3.955-1.118,9.413,1.664,13.075,1.434,1.888,4.054,2.605,6.488,3.119a119.373,119.373,0,0,0,57.412-2.092c1.5-.434,3.155-1.033,3.778-2.367C184.451,109.136,183.446,107.4,182.38,106.042Z" fill="#2f2e41"/>
      <ellipse id="Ellipse_14" data-name="Ellipse 14" cx="20.503" cy="20.144" rx="20.503" ry="20.144" transform="translate(126.619 77.344)" fill="#ffb7b7"/>
      <path id="Tracé_45" data-name="Tracé 45" d="M168.61,84.394c-.8-3.561-3.394-6.511-6.383-8.672a26.5,26.5,0,0,0-33.421,2,16.745,16.745,0,0,0-5.161,8.128,9.842,9.842,0,0,0,2.162,9.078l.41.252c-.371-1.548.852-3.1,2.314-3.778a18.789,18.789,0,0,1,4.721-1.039A17.355,17.355,0,0,0,145.016,82.2a19.407,19.407,0,0,0,11.232,11.5c2.71,1.042,10.152,2.473,12.732,1.151C172.271,93.169,169.409,87.955,168.61,84.394Z" fill="#2f2e41"/>
    </g>
  </g>
</svg>
